<svg version="1.1" viewBox="0.0 0.0 960.0 236.2204724409449" fill="none" stroke="none" stroke-linecap="square" stroke-miterlimit="10" xmlns:xlink="http://www.w3.org/1999/xlink" xmlns="http://www.w3.org/2000/svg"><clipPath id="p.0"><path d="m0 0l960.0 0l0 236.22047l-960.0 0l0 -236.22047z" clip-rule="nonzero"/></clipPath><g clip-path="url(#p.0)"><path fill="#000000" fill-opacity="0.0" d="m0 0l960.0 0l0 236.22047l-960.0 0z" fill-rule="evenodd"/><path fill="#000000" fill-opacity="0.0" d="m0 0l960.0 0l0 203.62204l-960.0 0z" fill-rule="evenodd"/><path fill="#ffffff" d="m58.703125 156.13875q-20.21875 0 -32.375 -7.671875q-12.15625 -7.6875 -12.15625 -23.484375q0 -8.359375 2.875 -12.765625q2.890625 -4.421875 8.515625 -4.421875q4.109375 0 6.6875 2.140625q2.59375 2.125 2.59375 5.46875q0 3.03125 -0.453125 5.3125q0 0.609375 -0.234375 2.140625q-0.234375 1.515625 -0.234375 3.1875q0 6.828125 6.921875 10.171875q6.921875 3.34375 19.375 3.34375q12.921875 0 20.21875 -4.625q7.296875 -4.640625 7.296875 -13.0q0 -5.171875 -3.34375 -8.890625q-3.34375 -3.71875 -8.359375 -6.21875q-5.015625 -2.515625 -14.140625 -6.171875q-11.703125 -4.5625 -19.078125 -8.65625q-7.359375 -4.109375 -12.609375 -11.171875q-5.25 -7.078125 -5.25 -17.5625q0 -10.9375 5.84375 -19.453125q5.859375 -8.515625 16.875 -13.21875q11.03125 -4.71875 25.921875 -4.71875q11.109375 0 20.375 3.265625q9.265625 3.265625 14.8125 9.953125q5.5625 6.6875 5.5625 16.421875q0 9.578125 -2.890625 14.4375q-2.890625 4.859375 -8.515625 4.859375q-3.953125 0 -6.625 -2.421875q-2.65625 -2.4375 -2.65625 -5.78125q0 -2.890625 0.46875 -5.3125q0.453125 -4.5625 0.453125 -5.78125q0 -6.390625 -6.234375 -9.734375q-6.234375 -3.34375 -15.5 -3.34375q-13.078125 0 -20.0 4.796875q-6.90625 4.78125 -6.90625 13.453125q0 5.765625 3.5625 9.875q3.578125 4.109375 8.890625 6.84375q5.328125 2.734375 14.90625 6.53125q11.546875 4.71875 18.53125 8.515625q7.0 3.796875 11.9375 10.34375q4.953125 6.53125 4.953125 16.09375q0 17.9375 -13.609375 27.59375q-13.609375 9.65625 -36.40625 9.65625zm81.61722 -0.453125q-9.421875 0 -15.046875 -6.84375q-5.625 -6.84375 -5.625 -17.9375q0 -12.15625 5.625 -23.015625q5.625 -10.875 14.96875 -17.484375q9.359375 -6.625 19.84375 -6.625q3.34375 0 4.484375 1.296875q1.140625 1.296875 1.90625 4.640625q3.1875 -0.609375 6.6875 -0.609375q7.4375 0 7.4375 5.3125q0 3.203125 -2.28125 15.203125q-3.484375 17.484375 -3.484375 24.328125q0 2.265625 1.140625 3.640625q1.140625 1.375 2.953125 1.375q2.890625 0 7.0 -3.71875q4.109375 -3.734375 11.09375 -12.09375q1.828125 -2.125 4.109375 -2.125q1.96875 0 3.109375 1.828125q1.140625 1.8125 1.140625 5.0q0 6.09375 -2.890625 9.4375q-6.234375 7.75 -13.234375 13.078125q-6.984375 5.3125 -13.515625 5.3125q-5.015625 0 -9.203125 -3.421875q-4.171875 -3.421875 -6.296875 -9.359375q-7.90625 12.78125 -19.921875 12.78125zm5.484375 -15.359375q3.34375 0 6.375 -3.953125q3.046875 -3.953125 4.40625 -10.484375l5.625 -27.96875q-6.375 0.15625 -11.78125 4.796875q-5.390625 4.625 -8.59375 12.234375q-3.1875 7.59375 -3.1875 16.109375q0 4.703125 1.90625 6.984375q1.90625 2.28125 5.25 2.28125zm115.06497 -19.296875q1.96875 0 3.109375 1.828125q1.140625 1.8125 1.140625 5.0q0 6.09375 -2.890625 9.4375q-6.53125 8.046875 -14.28125 13.21875q-7.75 5.171875 -17.78125 5.171875q-31.015625 0 -31.015625 -43.625q0 -6.6875 0.453125 -13.53125l-5.921875 0q-4.5625 0 -6.15625 -1.671875q-1.59375 -1.671875 -1.59375 -5.328125q0 -8.5 6.828125 -8.5l8.671875 0q2.578125 -16.71875 7.890625 -30.546875q5.328125 -13.84375 12.84375 -22.046875q7.53125 -8.21875 16.203125 -8.21875q6.375 0 10.015625 5.625q3.65625 5.625 3.65625 14.140625q0 23.5625 -19.75 41.046875l17.015625 0q2.4375 0 3.5 1.0625q1.0625 1.0625 1.0625 3.953125q0 10.484375 -17.171875 10.484375l-18.546875 0q-0.296875 7.59375 -0.296875 11.859375q0 15.796875 3.71875 22.1875q3.71875 6.390625 11.78125 6.390625q6.53125 0 11.546875 -3.953125q5.015625 -3.953125 11.859375 -11.859375q1.828125 -2.125 4.109375 -2.125zm-26.609375 -84.21875q-2.28125 0 -5.09375 5.703125q-2.8125 5.703125 -5.328125 15.8125q-2.5 10.109375 -4.171875 22.421875q8.96875 -7.75 13.453125 -17.40625q4.484375 -9.65625 4.484375 -17.5625q0 -8.96875 -3.34375 -8.96875zm96.37659 84.515625q1.96875 0 3.109375 1.90625q1.140625 1.890625 1.140625 4.78125q0 3.5 -1.0625 5.484375q-1.0625 1.96875 -3.34375 3.484375l-29.1875 19.609375q-5.765625 31.46875 -15.125 49.46875q-9.34375 18.015625 -23.78125 18.015625q-7.7499847 0 -12.624985 -4.796875q-4.859375 -4.78125 -4.859375 -12.53125q0 -7.140625 3.265625 -14.59375q3.265625 -7.4375 12.156235 -17.09375q8.90625 -9.65625 25.15625 -22.109375l0.46875 -3.5q1.0625 -5.625 2.421875 -16.109375q-3.03125 10.9375 -8.515625 16.640625q-5.46875 5.703125 -11.546875 5.703125q-6.84375 0 -11.171875 -6.3125q-4.3281097 -6.3125 -4.3281097 -15.734375q0 -11.40625 1.515625 -20.90625q1.53125 -9.5 5.0156097 -20.125q1.53125 -4.5625 4.265625 -6.53125q2.734375 -1.984375 8.65625 -1.984375q3.34375 0 4.640625 1.0625q1.296875 1.0625 1.296875 3.1875q0 1.21875 -1.671875 8.203125q-1.53125 5.625 -2.4375 10.1875q-1.21875 6.234375 -2.140625 11.9375q-0.90625 5.703125 -0.90625 9.34375q0 5.78125 3.203125 5.78125q2.28125 0 5.6875 -4.5625q3.421875 -4.5625 7.296875 -13.828125q3.875 -9.28125 7.53125 -22.796875q1.21875 -4.5625 3.71875 -6.53125q2.515625 -1.984375 7.53125 -1.984375q3.484375 0 4.859375 0.90625q1.375 0.90625 1.375 3.046875q0 3.796875 -3.953125 26.140625l-3.953125 24.46875q11.703125 -8.8125 22.796875 -16.109375q1.96875 -1.21875 3.5 -1.21875zm-66.578125 88.015625q3.796875 0 8.5 -8.828125q4.71875 -8.8125 9.4375 -29.328125q-11.703125 9.875 -16.953125 18.0q-5.25 8.140625 -5.25 14.21875q0 2.59375 0.984375 4.265625q1.0 1.671875 3.28125 1.671875zm78.725494 -53.65625q-9.421875 0 -15.046875 -6.84375q-5.625 -6.84375 -5.625 -17.9375q0 -12.15625 5.625 -23.015625q5.625 -10.875 14.96875 -17.484375q9.359375 -6.625 19.84375 -6.625q3.34375 0 4.484375 1.296875q1.140625 1.296875 1.90625 4.640625q3.1875 -0.609375 6.6875 -0.609375q7.4375 0 7.4375 5.3125q0 3.203125 -2.28125 15.203125q-3.484375 17.484375 -3.484375 24.328125q0 2.265625 1.140625 3.640625q1.140625 1.375 2.953125 1.375q2.890625 0 7.0 -3.71875q4.109375 -3.734375 11.09375 -12.09375q1.828125 -2.125 4.109375 -2.125q1.96875 0 3.109375 1.828125q1.140625 1.8125 1.140625 5.0q0 6.09375 -2.890625 9.4375q-6.234375 7.75 -13.234375 13.078125q-6.984375 5.3125 -13.515625 5.3125q-5.015625 0 -9.203125 -3.421875q-4.171875 -3.421875 -6.296875 -9.359375q-7.90625 12.78125 -19.921875 12.78125zm5.484375 -15.359375q3.34375 0 6.375 -3.953125q3.046875 -3.953125 4.40625 -10.484375l5.625 -27.96875q-6.375 0.15625 -11.78125 4.796875q-5.390625 4.625 -8.59375 12.234375q-3.1875 7.59375 -3.1875 16.109375q0 4.703125 1.90625 6.984375q1.90625 2.28125 5.25 2.28125zm58.064972 15.359375q-5.78125 0 -8.140625 -6.078125q-2.359375 -6.09375 -2.359375 -19.46875q0 -19.75 5.625 -37.53125q1.375 -4.421875 4.484375 -6.46875q3.125 -2.046875 8.75 -2.046875q3.03125 0 4.25 0.765625q1.21875 0.75 1.21875 2.875q0 2.4375 -2.28125 10.953125q-1.515625 6.078125 -2.4375 10.5625q-0.90625 4.484375 -1.515625 11.171875q4.109375 -11.859375 9.796875 -20.0625q5.703125 -8.21875 11.703125 -12.234375q6.015625 -4.03125 11.328125 -4.03125q5.328125 0 7.53125 2.4375q2.203125 2.421875 2.203125 7.4375q0 4.859375 -2.890625 17.640625q-1.21875 5.46875 -1.671875 8.203125q5.015625 -12.765625 11.171875 -20.8125q6.15625 -8.0625 12.078125 -11.484375q5.9375 -3.421875 10.953125 -3.421875q4.859375 0 7.359375 2.515625q2.515625 2.5 2.515625 7.359375q0 3.953125 -1.671875 14.890625q-1.515625 9.28125 -2.4375 17.5625q-0.90625 8.28125 -0.90625 18.46875q0 5.78125 -2.359375 8.296875q-2.34375 2.5 -7.671875 2.5q-5.015625 0 -7.296875 -2.578125q-2.28125 -2.59375 -2.28125 -7.765625q0 -6.078125 2.125 -20.0625q1.828125 -12.15625 1.828125 -15.5q0 -2.4375 -1.671875 -2.4375q-1.96875 0 -5.625 5.09375q-3.640625 5.09375 -7.296875 13.453125q-3.640625 8.359375 -5.921875 17.625q-1.671875 7.296875 -3.875 9.734375q-2.203125 2.4375 -7.078125 2.4375q-5.015625 0 -7.53125 -4.78125q-2.5 -4.796875 -2.5 -11.640625q0 -5.78125 1.53125 -16.71875q1.21875 -9.734375 1.21875 -12.765625q0 -2.4375 -1.6875 -2.4375q-2.265625 0 -5.765625 5.484375q-3.5 5.46875 -6.765625 13.984375q-3.265625 8.5 -5.25 16.703125q-1.671875 7.15625 -3.875 9.671875q-2.203125 2.5 -6.90625 2.5zm116.11896 -91.203125q-3.34375 0 -5.328125 -1.515625q-1.96875 -1.53125 -1.96875 -4.875q0 -1.359375 0.453125 -3.1875q1.671875 -7.0 2.5 -12.921875q0.84375 -5.921875 0.84375 -13.21875q0 -7.609375 3.578125 -11.703125q3.578125 -4.109375 9.203125 -4.109375q5.46875 0 8.28125 2.96875q2.8125 2.953125 2.8125 7.96875q0 5.328125 -3.203125 14.140625q-3.1875 8.8125 -7.75 17.171875q-3.03125 5.625 -4.78125 7.453125q-1.75 1.828125 -4.640625 1.828125zm46.96576 94.546875q-7.90625 0 -12.09375 -3.65625q-4.171875 -3.640625 -4.171875 -8.203125q0 -3.953125 2.890625 -6.84375q2.890625 -2.890625 8.515625 -2.890625q1.984375 0 4.640625 0.390625q2.65625 0.375 4.03125 0.53125q-0.15625 -3.953125 -1.75 -7.453125q-1.59375 -3.5 -4.03125 -6.765625q-2.4375 -3.265625 -4.5625 -5.703125q-4.71875 8.96875 -9.359375 14.90625q-4.625 5.921875 -10.09375 11.234375q-2.734375 2.75 -5.78125 2.75q-2.421875 0 -3.9375 -1.75q-1.53125 -1.75 -1.53125 -4.34375q0 -3.03125 2.125 -5.609375l1.984375 -2.4375q8.359375 -10.34375 12.609375 -17.03125q2.734375 -4.40625 5.546875 -10.484375q2.8125 -6.078125 7.375 -16.5625q2.890625 -6.6875 12.0 -6.6875q4.265625 0 5.9375 0.765625q1.671875 0.75 1.671875 2.421875q0 0.90625 -0.609375 2.890625q-0.609375 1.96875 -1.671875 3.953125q-2.734375 5.46875 -2.734375 9.265625q0 2.28125 1.59375 5.015625q1.59375 2.734375 4.9375 6.84375q4.859375 6.390625 7.359375 10.875q2.515625 4.484375 2.515625 9.796875q0 6.390625 -2.96875 12.09375q-2.953125 5.6875 -8.28125 9.1875q-5.3125 3.5 -12.15625 3.5zm196.54297 -101.390625q0 12.921875 -9.125 22.28125q-9.109375 9.34375 -26.59375 13.4375q9.421875 2.59375 14.28125 8.453125q4.875 5.84375 4.875 13.4375q0 12.015625 -7.53125 20.828125q-7.53125 8.8125 -21.96875 13.609375q-14.4375 4.78125 -34.796875 4.78125q-7.609375 0 -12.171875 -0.453125q-0.140625 4.25 -3.640625 6.375q-3.5 2.125 -8.96875 2.125q-5.46875 0 -7.53125 -2.4375q-2.046875 -2.421875 -1.734375 -7.125q1.359375 -21.28125 5.3125 -44.609375q3.953125 -23.34375 10.03125 -45.078125q1.0625 -3.796875 4.25 -5.3125q3.203125 -1.53125 8.359375 -1.53125q9.28125 0 9.28125 5.171875q0 2.125 -0.90625 4.859375q-3.953125 11.859375 -7.90625 32.15625q-3.953125 20.28125 -5.625 38.6875q7.296875 0.59375 11.859375 0.59375q21.265625 0 31.21875 -6.15625q9.96875 -6.15625 9.96875 -15.71875q0 -6.6875 -5.703125 -11.25q-5.703125 -4.5625 -19.078125 -5.015625q-3.03125 -0.15625 -4.25 -1.515625q-1.21875 -1.375 -1.21875 -4.421875q0 -4.40625 1.8125 -7.140625q1.828125 -2.734375 6.703125 -2.890625q10.78125 -0.296875 19.515625 -3.1875q8.75 -2.890625 13.765625 -8.125q5.015625 -5.25 5.015625 -12.25q0 -8.8125 -8.671875 -13.90625q-8.65625 -5.09375 -26.59375 -5.09375q-16.265625 0 -31.46875 4.1875q-15.1875 4.171875 -25.828125 10.5625q-4.859375 2.890625 -8.21875 2.890625q-2.734375 0 -4.171875 -1.890625q-1.4375 -1.90625 -1.4375 -4.796875q0 -3.796875 1.59375 -6.53125q1.59375 -2.75 7.671875 -6.234375q12.765625 -7.296875 29.9375 -11.40625q17.1875 -4.109375 35.125 -4.109375q27.5 0 41.03125 9.28125q13.53125 9.265625 13.53125 24.46875zm58.67273 63.390625q1.96875 0 3.109375 1.828125q1.140625 1.8125 1.140625 5.0q0 6.09375 -2.890625 9.4375q-6.53125 8.046875 -14.203125 13.21875q-7.671875 5.171875 -17.40625 5.171875q-13.375 0 -19.84375 -12.15625q-6.453125 -12.171875 -6.453125 -31.46875q0 -18.546875 4.78125 -42.25q4.796875 -23.71875 14.140625 -40.734375q9.34375 -17.03125 22.265625 -17.03125q7.296875 0 11.46875 6.765625q4.1875 6.75 4.1875 19.375q0 18.09375 -10.03125 41.953125q-10.03125 23.859375 -27.203125 47.265625q1.0625 6.234375 3.484375 8.90625q2.4375 2.65625 6.390625 2.65625q6.234375 0 10.9375 -3.578125q4.71875 -3.578125 12.015625 -12.234375q1.828125 -2.125 4.109375 -2.125zm-18.703125 -93.9375q-3.484375 0 -7.90625 12.625q-4.40625 12.609375 -7.75 31.3125q-3.34375 18.6875 -3.640625 35.859375q10.796875 -17.78125 17.171875 -35.640625q6.390625 -17.859375 6.390625 -32.609375q0 -11.546875 -4.265625 -11.546875zm88.16138 81.171875q1.984375 0 3.046875 1.96875q1.0625 1.96875 1.0625 5.015625q0 7.296875 -4.40625 8.65625q-9.125 3.203125 -20.0625 3.65625q-2.890625 12.765625 -11.40625 20.453125q-8.515625 7.671875 -19.296875 7.671875q-9.125 0 -15.59375 -4.40625q-6.453125 -4.421875 -9.796875 -11.703125q-3.34375 -7.296875 -3.34375 -15.8125q0 -11.5625 4.40625 -20.59375q4.40625 -9.046875 12.15625 -14.140625q7.765625 -5.09375 17.1875 -5.09375q11.546875 0 18.609375 7.984375q7.078125 7.96875 8.28125 19.6875q7.15625 -0.46875 17.03125 -3.046875q1.21875 -0.296875 2.125 -0.296875zm-49.859375 31.296875q4.875 0 8.4375 -3.9375q3.578125 -3.953125 4.796875 -11.40625q-4.71875 -3.1875 -7.234375 -8.359375q-2.5 -5.171875 -2.5 -10.953125q0 -2.421875 0.453125 -4.859375l-0.75 0q-6.078125 0 -10.109375 5.859375q-4.03125 5.84375 -4.03125 16.484375q0 8.359375 3.265625 12.765625q3.265625 4.40625 7.671875 4.40625zm92.427 -50.453125q3.796875 0 5.390625 1.140625q1.59375 1.140625 1.59375 4.484375q0 1.8125 -0.15625 2.890625q-0.59375 4.703125 -3.796875 24.3125q-2.28125 13.21875 -2.890625 17.484375q-5.765625 39.21875 -15.578125 61.9375q-9.796875 22.71875 -26.21875 22.71875q-7.75 0 -12.609375 -4.796875q-4.859375 -4.78125 -4.859375 -12.53125q0 -10.78125 8.5 -23.171875q8.515625 -12.390625 31.921875 -30.484375l0.921875 -5.921875q-2.59375 4.109375 -6.78125 6.3125q-4.171875 2.203125 -8.28125 2.203125q-9.421875 0 -15.046875 -6.84375q-5.625 -6.84375 -5.625 -17.9375q0 -12.15625 5.625 -23.015625q5.625 -10.875 14.96875 -17.484375q9.359375 -6.625 19.84375 -6.625q3.34375 0 4.484375 1.296875q1.140625 1.296875 1.90625 4.640625q2.890625 -0.609375 6.6875 -0.609375zm-27.359375 51.21875q3.484375 0 6.671875 -4.25q3.203125 -4.265625 4.578125 -12.171875l4.859375 -25.984375q-6.234375 0.15625 -11.5625 4.796875q-5.3125 4.625 -8.515625 12.234375q-3.1875 7.59375 -3.1875 16.109375q0 4.703125 1.90625 6.984375q1.90625 2.28125 5.25 2.28125zm-12.625 69.015625q3.796875 0 8.578125 -9.125q4.796875 -9.125 9.203125 -29.03125q-11.703125 10.03125 -16.875 18.078125q-5.15625 8.0625 -5.15625 14.140625q0 2.59375 0.984375 4.265625q0.984375 1.671875 3.265625 1.671875z" fill-rule="nonzero"/></g></svg>